<?xml version="1.0" encoding="UTF-8"?>
<svg version="1.1" xmlns="http://www.w3.org/2000/svg" width="94" height="21">
<path d="M0 0 C2.31 0 4.62 0 7 0 C7.22786458 2.05078125 7.45572917 4.1015625 7.68359375 6.15234375 C7.81886614 8.01140229 7.81886614 8.01140229 9 9 C9.144375 7.700625 9.28875 6.40125 9.4375 5.0625 C9.875 1.125 9.875 1.125 11 0 C12.99958364 -0.04080783 15.00045254 -0.04254356 17 0 C17.17015625 0.78503906 17.3403125 1.57007812 17.515625 2.37890625 C18.95729694 8.62870747 20.58602142 13.58472363 24 19 C24 19.66 24 20.32 24 21 C21.75 21.375 21.75 21.375 19 21 C16.64977311 18.06221639 15.18899021 15.56697062 14 12 C12.78702351 14.2806707 12.78702351 14.2806707 12 17 C12.66 18.32 13.32 19.64 14 21 C10.7 21 7.4 21 4 21 C4.20625 20.2575 4.4125 19.515 4.625 18.75 C5.05154009 15.62203932 4.49700675 14.67404259 3 12 C2.72285156 12.56589844 2.44570312 13.13179687 2.16015625 13.71484375 C1.61681641 14.81505859 1.61681641 14.81505859 1.0625 15.9375 C0.70285156 16.66839844 0.34320312 17.39929688 -0.02734375 18.15234375 C-1 20 -1 20 -2 21 C-3.66617115 21.04063832 -5.33388095 21.042721 -7 21 C-5.97429845 18.31739596 -4.90199421 15.82440629 -3.5 13.3125 C-1.54191485 8.98839529 -0.78289579 4.66053256 0 0 Z " fill="#FFFFFF" transform="translate(7,0)"/>
<path d="M0 0 C4.04381805 0.84246209 5.53235541 2.35899981 8 5.625 C8 7.275 8 8.925 8 10.625 C4.7 10.625 1.4 10.625 -2 10.625 C-2 11.285 -2 11.945 -2 12.625 C1.3 12.295 4.6 11.965 8 11.625 C6 15.625 6 15.625 4.25 16.9375 C1.07357864 17.90807319 -0.83601738 17.61374457 -4 16.625 C-6.81831785 14.02918092 -7.85564038 12.39491795 -8.5625 8.625 C-7.61816715 3.58855815 -4.99911317 1.04148191 0 0 Z M-1 4.625 C-1.33 5.285 -1.66 5.945 -2 6.625 C-0.35 6.625 1.3 6.625 3 6.625 C2.67 5.965 2.34 5.305 2 4.625 C1.01 4.625 0.02 4.625 -1 4.625 Z " fill="#FFFFFF" transform="translate(38,3.375)"/>
<path d="M0 0 C1.9375 1.1875 1.9375 1.1875 3 3 C3.1875 6.1875 3.1875 6.1875 3 9 C1.35 9.33 -0.3 9.66 -2 10 C-0.35 10 1.3 10 3 10 C2.67 11.32 2.34 12.64 2 14 C-2.12685832 15.56820616 -4.15550146 16.31277724 -8.375 14.75 C-11 13 -11 13 -12 11 C-12.46622517 3.65695364 -12.46622517 3.65695364 -10.625 1.0625 C-6.80263724 -1.43673719 -4.45872838 -0.93867966 0 0 Z M-6 3 C-6.33 3.66 -6.66 4.32 -7 5 C-5.35 5 -3.7 5 -2 5 C-2.33 4.34 -2.66 3.68 -3 3 C-3.99 3 -4.98 3 -6 3 Z " fill="#FFFFFF" transform="translate(59,5)"/>
<path d="M0 0 C2.375 1.875 2.375 1.875 4 4 C4 4.66 4 5.32 4 6 C3.01 6.495 3.01 6.495 2 7 C2.66 7.33 3.32 7.66 4 8 C4.3125 10.8125 4.3125 10.8125 4 14 C1.19275671 16.55954535 -0.32819779 17.02687209 -4.125 16.875 C-7.02784588 15.99152517 -8.28818502 15.47262164 -10 13 C-10 12.01 -10 11.02 -10 10 C-9.34 9.67 -8.68 9.34 -8 9 C-8.66 8.34 -9.32 7.68 -10 7 C-9.8125 4.5 -9.8125 4.5 -9 2 C-5.50875983 -0.32749345 -4.10777749 -0.50299316 0 0 Z M-5 4 C-5 4.66 -5 5.32 -5 6 C-3.68 5.67 -2.36 5.34 -1 5 C-2.32 4.67 -3.64 4.34 -5 4 Z M-5 10 C-5 10.66 -5 11.32 -5 12 C-3.68 11.67 -2.36 11.34 -1 11 C-2.32 10.67 -3.64 10.34 -5 10 Z " fill="#FFFFFF" transform="translate(90,4)"/>
<path d="M0 0 C1.9453125 -0.29296875 1.9453125 -0.29296875 4.125 -0.1875 C5.40375 -0.125625 6.6825 -0.06375 8 0 C8 1.32 8 2.64 8 4 C6.68 4 5.36 4 4 4 C4 7.63 4 11.26 4 15 C2.35 15.33 0.7 15.66 -1 16 C-2.79904778 14.20095222 -2.17296543 11.54936549 -2.1875 9.125 C-2.20167969 8.05507812 -2.21585938 6.98515625 -2.23046875 5.8828125 C-2 3 -2 3 0 0 Z " fill="#FFFFFF" transform="translate(65,5)"/>
<path d="M0 0 C1.65 0 3.3 0 5 0 C5 5.28 5 10.56 5 16 C3.35 16 1.7 16 0 16 C0 10.72 0 5.44 0 0 Z " fill="#FFFFFF" transform="translate(74,5)"/>
</svg>
